# Blender 3.4.1
# www.blender.org
mtllib window.mtl
o window
v -1.880983 1.923260 -0.156626
v -1.874621 1.923260 -0.156626
v -1.874621 1.923260 0.668526
v -1.880983 1.923260 0.668526
v -1.874621 1.947929 0.714368
v -1.874621 1.947929 -0.202468
v -1.874621 1.084517 -0.156626
v -1.874621 1.658069 -0.156626
v -1.871441 1.661153 -0.162357
v -1.874621 1.084517 -0.156626
v -1.880983 1.084517 0.668526
v -1.880983 1.084517 -0.156626
v -1.874621 1.084517 0.668526
v -1.874621 1.059848 -0.202468
v -1.874621 1.059848 0.714368
v -1.880983 1.923260 -0.156626
v -1.874621 1.682738 -0.156626
v -1.880983 1.682738 -0.156626
v -1.874621 1.923260 -0.156626
v -1.874621 1.682738 -0.156626
v -1.871441 1.679655 -0.162357
v -1.874621 1.923260 -0.156626
v -1.874621 1.682738 -0.156626
v -1.880983 1.682738 -0.156626
v -1.880983 1.682738 0.668526
v -1.874621 1.682738 0.668526
v -1.874621 1.682738 0.668526
v -1.871441 1.679655 -0.162357
v -1.871441 1.679654 0.674256
v -1.874621 1.682738 -0.156626
v -1.874621 1.658069 -0.156626
v -1.871441 1.661153 -0.162357
v -1.871441 1.661153 0.674256
v -1.874621 1.658069 0.668526
v -1.874621 1.658069 -0.156626
v -1.874621 1.658069 0.668526
v -1.880983 1.658069 0.668526
v -1.880983 1.658069 -0.156626
v -1.880983 1.096852 0.645605
v -1.880983 1.645735 0.645605
v -1.900067 1.096852 0.645605
v -1.900067 1.645735 0.645605
v -1.900067 1.096852 -0.133706
v -1.880983 1.645735 -0.133705
v -1.900067 1.645735 -0.133705
v -1.880983 1.096852 -0.133706
v -1.880983 1.695073 0.645605
v -1.880983 1.910926 0.645605
v -1.900067 1.695073 0.645605
v -1.900067 1.910926 0.645605
v -1.900067 1.695073 -0.133705
v -1.900067 1.910926 -0.133705
v -1.880983 1.910926 -0.133705
v -1.880983 1.695073 -0.133705
v -1.880983 1.923260 -0.156626
v -1.880983 1.923260 0.668526
v -1.880983 1.910926 0.645605
v -1.880983 1.910926 -0.133705
v -1.880983 1.910926 0.645605
v -1.880983 1.910926 -0.133705
v -1.900067 1.910926 0.645605
v -1.900067 1.910926 -0.133705
v -1.880983 1.695073 0.645605
v -1.880983 1.682738 0.668526
v -1.880983 1.682738 -0.156626
v -1.880983 1.695073 -0.133705
v -1.900067 1.695073 0.645605
v -1.880983 1.695073 -0.133705
v -1.900067 1.695073 -0.133705
v -1.880983 1.695073 0.645605
v -1.880983 1.645735 -0.133705
v -1.880983 1.658069 -0.156626
v -1.880983 1.658069 0.668526
v -1.880983 1.645735 0.645605
v -1.880983 1.645735 0.645605
v -1.900067 1.645735 -0.133705
v -1.900067 1.645735 0.645605
v -1.880983 1.645735 -0.133705
v -1.880983 1.084517 0.668526
v -1.880983 1.084517 -0.156626
v -1.880983 1.096852 0.645605
v -1.880983 1.096852 -0.133706
v -1.900067 1.096852 0.645605
v -1.880983 1.096852 0.645605
v -1.880983 1.096852 -0.133706
v -1.900067 1.096852 -0.133706
v -1.798283 1.007427 -0.254040
v -1.791060 1.007427 0.765940
v -1.798283 1.007427 0.765940
v -1.791061 1.007427 -0.254040
v -1.788741 1.019761 -0.254040
v -1.788741 1.019761 0.765940
v -1.788741 1.019761 -0.254040
v -1.788741 1.019761 0.765940
v -1.785560 1.044430 -0.254040
v -1.785560 1.020898 0.765940
v -1.785560 1.044430 0.765940
v -1.785560 1.020898 -0.254040
v -1.785560 1.044430 -0.254040
v -1.785560 1.044430 0.765940
v -1.798283 1.059848 -0.254040
v -1.798283 1.059848 0.765940
v -1.773552 1.045123 0.765940
v -1.773552 1.059156 0.765940
v -1.798283 1.059848 0.765940
v -1.798283 1.007427 0.765940
v -1.785560 1.020898 0.765940
v -1.788741 1.019761 0.765940
v -1.791060 1.007427 0.765940
v -1.785560 1.044430 0.765940
v -1.773552 1.059156 -0.254040
v -1.773552 1.045123 -0.254040
v -1.785560 1.044430 -0.254040
v -1.785560 1.020898 -0.254040
v -1.788741 1.019761 -0.254040
v -1.798283 1.007427 -0.254040
v -1.791061 1.007427 -0.254040
v -1.798283 1.059848 -0.254040
v -1.791061 1.007427 -0.254040
v -1.791060 1.007427 0.765940
v -1.785560 1.020898 0.765940
v -1.785560 1.020898 -0.254040
v -1.773552 1.045123 -0.254040
v -1.773552 1.045123 0.765940
v -1.773552 1.059156 0.765940
v -1.773552 1.059156 -0.254040
v -1.787151 1.059848 -0.254040
v -1.787151 1.059848 -0.254040
v -1.787151 1.975682 -0.254040
v -1.798283 1.975682 -0.254040
v -1.798283 1.059848 -0.254040
v -1.792566 1.947929 0.714368
v -1.792566 1.059848 0.714368
v -1.792566 1.059848 -0.202468
v -1.792566 1.947929 -0.202468
v -1.787917 1.059848 -0.207395
v -1.787917 1.059848 0.719294
v -1.798283 1.059848 0.714368
v -1.798283 1.059848 -0.202468
v -1.874621 1.059848 -0.202468
v -1.874621 1.059848 0.714368
v -1.874621 1.947929 -0.202468
v -1.874621 1.947929 0.714368
v -1.792566 1.947929 -0.202468
v -1.792566 1.947929 0.714368
v -1.787151 1.975682 -0.254040
v -1.787151 1.975681 0.765940
v -1.798283 1.975682 -0.254040
v -1.798283 1.975681 0.765940
v -1.787151 1.975682 -0.254040
v -1.792566 1.059848 0.714368
v -1.798283 1.059848 0.714368
v -1.792566 1.947929 0.714368
v -1.874621 1.059848 0.714368
v -1.874621 1.947929 0.714368
v -1.787151 1.059848 0.765940
v -1.787151 1.975681 0.765940
v -1.798283 1.059848 0.765940
v -1.798283 1.975681 0.765940
v -1.787151 1.975681 0.765940
v -1.787151 1.059848 0.765940
v -1.874621 1.059848 -0.202468
v -1.798283 1.059848 -0.202468
v -1.874621 1.947929 -0.202468
v -1.792566 1.947929 -0.202468
v -1.792566 1.059848 -0.202468
v -1.880983 1.658069 -0.156626
v -1.874621 1.084517 -0.156626
v -1.880983 1.084517 -0.156626
v -1.874621 1.658069 -0.156626
v -1.871441 1.679655 -0.162357
v -1.871441 1.661153 -0.162357
v -1.880983 1.658069 0.668526
v -1.874621 1.084517 0.668526
v -1.874621 1.658069 0.668526
v -1.880983 1.084517 0.668526
v -1.880983 1.682738 0.668526
v -1.874621 1.923260 0.668526
v -1.880983 1.923260 0.668526
v -1.874621 1.682738 0.668526
v -1.874621 1.923260 0.668526
v -1.874621 1.682738 0.668526
v -1.871441 1.679654 0.674256
v -1.871441 1.661153 0.674256
v -1.874621 1.084517 0.668526
v -1.874621 1.658069 0.668526
v -1.871441 1.679654 0.674256
v -1.871441 1.661153 0.674256
v -1.871441 1.926344 0.674256
v -1.874621 1.923260 0.668526
v -1.871441 1.926344 -0.162357
v -1.874621 1.923260 -0.156626
v -1.871441 1.944845 -0.196738
v -1.871441 1.944845 0.708638
v -1.871441 1.081434 -0.162357
v -1.871441 1.926344 -0.162357
v -1.874621 1.059848 0.714368
v -1.871441 1.944845 0.708638
v -1.871441 1.062932 0.708637
v -1.874621 1.947929 0.714368
v -1.871441 1.081434 -0.162357
v -1.874621 1.084517 0.668526
v -1.871441 1.081434 0.674256
v -1.874621 1.084517 -0.156626
v -1.871441 1.081434 -0.162357
v -1.871441 1.062932 0.708637
v -1.871441 1.062932 -0.196738
v -1.871441 1.062932 -0.196738
v -1.871441 1.944845 -0.196738
v -1.874621 1.059848 -0.202468
v -1.874621 1.947929 -0.202468
v -1.871441 1.926344 -0.162357
v -1.788741 1.009675 -0.254040
v -1.788741 1.009675 0.765940
v -1.786733 1.019761 0.765940
v -1.786733 1.019761 -0.254040
v -1.775210 1.044430 -0.254040
v -1.775210 1.044430 0.765940
v -1.775210 1.059848 0.765940
v -1.775210 1.059848 -0.254040
v -1.775210 1.044430 0.765940
v -1.772837 1.046730 0.765940
v -1.772837 1.057548 0.765940
v -1.775210 1.059848 0.765940
v -1.788741 1.009675 0.765940
v -1.786733 1.019761 0.765940
v -1.775210 1.059848 -0.254040
v -1.772838 1.057549 -0.254040
v -1.772838 1.046730 -0.254040
v -1.775210 1.044430 -0.254040
v -1.786733 1.019761 -0.254040
v -1.788741 1.009675 -0.254040
v -1.788741 1.009675 -0.254040
v -1.788741 1.009675 0.765940
v -1.786733 1.019761 0.765940
v -1.786733 1.019761 -0.254040
v -1.772837 1.046730 0.765940
v -1.772838 1.046730 -0.254040
v -1.775210 1.059848 0.765940
v -1.773552 1.059156 0.765940
v -1.775210 1.059848 -0.254040
v -1.773552 1.059156 -0.254040
v -1.775210 1.044430 -0.254040
v -1.775210 1.044430 0.765940
v -1.773552 1.045123 0.765940
v -1.773552 1.045123 -0.254040
v -1.772838 1.057549 -0.254040
v -1.772837 1.057548 0.765940
v -1.787151 1.059848 -0.248310
v -1.787151 1.059848 -0.219659
v -1.788741 1.059848 -0.242580
v -1.788741 1.059848 -0.225389
v -1.792566 1.947929 -0.202468
v -1.792566 1.947929 0.714368
v -1.789886 1.059848 0.715747
v -1.789885 1.948671 0.715747
v -1.789886 1.059848 -0.203848
v -1.789886 1.948671 -0.203848
v -1.787151 1.059848 -0.212223
v -1.789885 1.948671 0.715747
v -1.787916 1.950580 0.719294
v -1.787917 1.950580 -0.207395
v -1.789886 1.948671 -0.203848
v -1.787151 1.953178 -0.212223
v -1.787151 1.957180 -0.219659
v -1.788741 1.960263 -0.225389
v -1.788741 1.969514 -0.242580
v -1.787151 1.972598 -0.248310
v -1.787151 1.059848 0.731558
v -1.787151 1.059848 0.724123
v -1.787151 1.953178 0.724123
v -1.787151 1.957180 0.731558
v -1.787151 1.059848 0.760209
v -1.787151 1.972598 0.760210
v -1.788741 1.960263 0.737289
v -1.788741 1.059848 0.754479
v -1.788741 1.969514 0.754479
v -1.788741 1.059848 0.737289
v -1.871441 1.944845 -0.196738
v -1.871441 1.062932 -0.196738
v -1.871441 1.926344 0.674256
v -1.871441 1.081434 0.674256
v -1.871441 1.081434 0.674256
v -1.871441 1.062932 0.708637
v -1.871441 1.944845 0.708638
v -1.871441 1.926344 0.674256
vn -0.0000 -1.0000 -0.0000
vn -0.0000 -0.0000 -1.0000
vn 0.8743 -0.0000 -0.4853
vn -0.0000 -0.0000 1.0000
vn -0.0000 1.0000 -0.0000
vn 0.3854 -0.9227 -0.0000
vn 0.3854 0.9227 -0.0000
vn 0.6960 -0.7180 -0.0000
vn 0.6961 -0.7180 -0.0000
vn 1.0000 -0.0000 -0.0000
vn 0.6961 0.7180 -0.0000
vn 0.8743 -0.0000 0.4853
vn 0.9636 -0.0000 -0.2674
vn 0.8888 -0.4584 -0.0000
vn 0.8888 0.4584 -0.0000
vn 0.9592 -0.2827 -0.0000
vn 0.2669 -0.9637 -0.0000
vn 0.4576 -0.0000 -0.8891
vn 0.9877 -0.0000 -0.1566
vn 0.9636 -0.0000 0.2674
vn 0.4576 -0.0000 0.8891
vn 0.9877 -0.0000 0.1566
vn 0.9138 -0.4061 -0.0000
vn 0.9138 0.4061 -0.0000
vt 0.246094 0.000000
vt 0.259983 0.000000
vt 0.259983 -1.000000
vt 0.246094 -1.000000
vt 0.309912 -0.028662
vt 0.819467 -0.028662
vt 0.793989 -0.920382
vt 0.793989 -0.328025
vt 0.797174 -0.324841
vt 0.259983 0.000000
vt 0.246094 -1.000000
vt 0.246094 0.000000
vt 0.259983 -1.000000
vt 0.819467 -0.945860
vt 0.309912 -0.945860
vt 0.897978 0.000000
vt 0.890625 -0.286765
vt 0.897978 -0.286765
vt 0.890625 0.000000
vt 0.793989 -0.302548
vt 0.797174 -0.305732
vt 0.793989 -0.054140
vt 0.259983 0.000000
vt 0.246094 0.000000
vt 0.246094 -1.000000
vt 0.259983 -1.000000
vt 0.335390 -0.302548
vt 0.797174 -0.305732
vt 0.332205 -0.305732
vt 0.793989 -0.302548
vt 0.793989 -0.328025
vt 0.797174 -0.324841
vt 0.332205 -0.324841
vt 0.335390 -0.328025
vt 0.259983 0.000000
vt 0.259983 -1.000000
vt 0.246094 -1.000000
vt 0.246094 0.000000
vt 0.859375 -1.000000
vt 0.859375 -0.325758
vt 0.882102 -1.000000
vt 0.882102 -0.325758
vt 0.882102 -1.000000
vt 0.859375 -0.325758
vt 0.882102 -0.325758
vt 0.859375 -1.000000
vt 0.859375 -0.265152
vt 0.859375 0.000000
vt 0.882102 -0.265152
vt 0.882102 0.000000
vt 0.882102 -0.265152
vt 0.882102 0.000000
vt 0.859375 0.000000
vt 0.859375 -0.265152
vt 0.793989 -0.054140
vt 0.335390 -0.054140
vt 0.348129 -0.066879
vt 0.781250 -0.066879
vt 0.925269 -0.431105
vt 0.925269 0.000000
vt 0.906250 -0.431105
vt 0.906250 0.000000
vt 0.348129 -0.289809
vt 0.335390 -0.302548
vt 0.793989 -0.302548
vt 0.781250 -0.289809
vt 0.906250 -0.431105
vt 0.925269 0.000000
vt 0.906250 0.000000
vt 0.925269 -0.431105
vt 0.781250 -0.340764
vt 0.793989 -0.328025
vt 0.335390 -0.328025
vt 0.348129 -0.340764
vt 0.925269 -0.431105
vt 0.906250 0.000000
vt 0.906250 -0.431105
vt 0.925269 0.000000
vt 0.335390 -0.920382
vt 0.793989 -0.920382
vt 0.348129 -0.907643
vt 0.781250 -0.907643
vt 0.906250 -0.431105
vt 0.925269 -0.431105
vt 0.925269 0.000000
vt 0.906250 0.000000
vt 0.234375 0.000000
vt 0.241654 -0.570588
vt 0.234375 -0.570588
vt 0.241654 0.000000
vt 0.848129 -0.987261
vt 0.281250 -0.987261
vt 0.848129 -0.987261
vt 0.281250 -0.987261
vt 0.848129 -0.961783
vt 0.281250 -0.986087
vt 0.281250 -0.961783
vt 0.848129 -0.986087
vt 0.970259 0.000000
vt 0.970259 -0.762477
vt 0.199219 0.000000
vt 0.199219 -0.674128
vt 0.360958 -0.366352
vt 0.360958 -0.349427
vt 0.389877 -0.348591
vt 0.389877 -0.411818
vt 0.375000 -0.395570
vt 0.378719 -0.396941
vt 0.381431 -0.411818
vt 0.375000 -0.367187
vt 0.360958 -0.349427
vt 0.360958 -0.366352
vt 0.375000 -0.367187
vt 0.375000 -0.395570
vt 0.378719 -0.396941
vt 0.389877 -0.411818
vt 0.381431 -0.411818
vt 0.389877 -0.348591
vt 0.848129 -1.000000
vt 0.281250 -1.000000
vt 0.281250 -0.986087
vt 0.848129 -0.986087
vt 0.848129 -0.961068
vt 0.281250 -0.961068
vt 0.281250 -0.946575
vt 0.848129 -0.946575
vt 0.848129 -0.945860
vt 0.933594 -1.000000
vt 0.933594 0.000000
vt 0.945378 0.000000
vt 0.945378 -1.000000
vt 0.309912 -0.028662
vt 0.309912 -0.945860
vt 0.819467 -0.945860
vt 0.819467 -0.028662
vt 0.822205 -0.945860
vt 0.307174 -0.945860
vt 0.199219 -0.640043
vt 0.199219 -0.034085
vt 0.108325 -0.034085
vt 0.108325 -0.640043
vt 0.108325 -0.034085
vt 0.108325 -0.640043
vt 0.206027 -0.034085
vt 0.206027 -0.640043
vt 0.968117 0.000000
vt 0.968117 -0.762477
vt 0.953125 0.000000
vt 0.953125 -0.762477
vt 0.848129 0.000000
vt 0.000000 -1.000000
vt 0.006242 -1.000000
vt 0.000000 0.000000
vt 0.089575 -1.000000
vt 0.089575 0.000000
vt 0.281250 -0.945860
vt 0.281250 0.000000
vt 0.945378 -1.000000
vt 0.945378 0.000000
vt 0.933594 0.000000
vt 0.933594 -1.000000
vt 0.089575 -1.000000
vt 0.006242 -1.000000
vt 0.089575 0.000000
vt 0.000000 0.000000
vt 0.000000 -1.000000
vt 0.897978 -0.316176
vt 0.890625 -1.000000
vt 0.897978 -1.000000
vt 0.890625 -0.316176
vt 0.797174 -0.305732
vt 0.797174 -0.324841
vt 0.897978 -0.316176
vt 0.890625 -1.000000
vt 0.890625 -0.316176
vt 0.897978 -1.000000
vt 0.897978 -0.286765
vt 0.890625 0.000000
vt 0.897978 0.000000
vt 0.890625 -0.286765
vt 0.335390 -0.054140
vt 0.335390 -0.302548
vt 0.332205 -0.305732
vt 0.332205 -0.324841
vt 0.335390 -0.920382
vt 0.335390 -0.328025
vt 0.332205 -0.305732
vt 0.332205 -0.324841
vt 0.332205 -0.050955
vt 0.335390 -0.054140
vt 0.797174 -0.050955
vt 0.793989 -0.054140
vt 0.816282 -0.031847
vt 0.313097 -0.031847
vt 0.797174 -0.923567
vt 0.797174 -0.050955
vt 0.309912 -0.945860
vt 0.313097 -0.031847
vt 0.313097 -0.942675
vt 0.309912 -0.028662
vt 0.797174 -0.923567
vt 0.335390 -0.920382
vt 0.332205 -0.923567
vt 0.793989 -0.920382
vt 0.797174 -0.923567
vt 0.313097 -0.942675
vt 0.816282 -0.942675
vt 0.816282 -0.942675
vt 0.816282 -0.031847
vt 0.819467 -0.945860
vt 0.819467 -0.028662
vt 0.797174 -0.050955
vt 0.848129 -0.997678
vt 0.281250 -0.997678
vt 0.281250 -0.987261
vt 0.848129 -0.987261
vt 0.984199 0.000000
vt 0.984199 -0.762477
vt 0.226692 -0.674128
vt 0.226692 0.000000
vt 0.362897 -0.367187
vt 0.360123 -0.364414
vt 0.360123 -0.351365
vt 0.362897 -0.348591
vt 0.378719 -0.409106
vt 0.376372 -0.396941
vt 0.362897 -0.348591
vt 0.360123 -0.351365
vt 0.360123 -0.364414
vt 0.362897 -0.367187
vt 0.376372 -0.396941
vt 0.378719 -0.409106
vt 0.848129 -0.997678
vt 0.281250 -0.997678
vt 0.281250 -0.987261
vt 0.848129 -0.987261
vt 0.281250 -0.959408
vt 0.848129 -0.959408
vt 0.281250 -0.945860
vt 0.281250 -0.946575
vt 0.848129 -0.945860
vt 0.848129 -0.946575
vt 0.848129 -0.961783
vt 0.281250 -0.961783
vt 0.281250 -0.961068
vt 0.848129 -0.961068
vt 0.848129 -0.948235
vt 0.281250 -0.948235
vt 0.844944 -0.945860
vt 0.829021 -0.945860
vt 0.841760 -0.945860
vt 0.832205 -0.945860
vt 0.819467 -0.028662
vt 0.309912 -0.028662
vt 0.309146 -0.945860
vt 0.309146 -0.027896
vt 0.820233 -0.945860
vt 0.820233 -0.027896
vt 0.824888 -0.945860
vt 0.309146 -0.027896
vt 0.307174 -0.025924
vt 0.822205 -0.025924
vt 0.820233 -0.027896
vt 0.824888 -0.023241
vt 0.829021 -0.019108
vt 0.832205 -0.015924
vt 0.841760 -0.006369
vt 0.844944 -0.003185
vt 0.300358 -0.945860
vt 0.304491 -0.945860
vt 0.304491 -0.023241
vt 0.300358 -0.019108
vt 0.284435 -0.945860
vt 0.284435 -0.003185
vt 0.297174 -0.015924
vt 0.287619 -0.945860
vt 0.287619 -0.006369
vt 0.297174 -0.945860
vt 0.816282 -0.031847
vt 0.816282 -0.942675
vt 0.332205 -0.050955
vt 0.332205 -0.923567
vt 0.332205 -0.923567
vt 0.313097 -0.942675
vt 0.313097 -0.031847
vt 0.332205 -0.050955
s 0
f 2/2/1 3/3/1 4/4/1
f 1/1/1 2/2/1 4/4/1
f 154/154/2 155/155/2 153/153/2
f 152/152/2 154/154/2 153/153/2
f 151/151/2 152/152/2 153/153/2
f 282/282/3 185/185/3 186/186/3
f 184/184/3 282/282/3 186/186/3
f 281/281/3 183/183/3 182/182/3
f 181/181/3 281/281/3 182/182/3
f 179/179/2 178/178/2 180/180/2
f 177/177/2 179/179/2 180/180/2
f 175/175/2 174/174/2 176/176/2
f 173/173/2 175/175/2 176/176/2
f 169/169/4 168/168/4 170/170/4
f 167/167/4 169/169/4 170/170/4
f 161/161/4 160/160/4 159/159/4
f 158/158/4 161/161/4 159/159/4
f 148/148/5 149/149/5 147/147/5
f 146/146/5 148/148/5 147/147/5
f 144/144/1 145/145/1 143/143/1
f 142/142/1 144/144/1 143/143/1
f 139/139/5 140/140/5 141/141/5
f 138/138/5 139/139/5 141/141/5
f 131/131/2 130/130/2 129/129/2
f 128/128/2 131/131/2 129/129/2
f 246/246/6 245/245/6 244/244/6
f 243/243/6 246/246/6 244/244/6
f 240/240/7 242/242/7 241/241/7
f 239/239/7 240/240/7 241/241/7
f 235/235/8 236/236/8 122/122/8
f 121/121/9 235/235/9 122/122/9
f 233/233/9 234/234/9 120/120/9
f 119/119/9 233/233/9 120/120/9
f 107/107/4 110/110/4 108/108/4
f 226/226/4 107/107/4 108/108/4
f 225/225/4 108/108/4 109/109/4
f 110/110/4 109/109/4 108/108/4
f 106/106/4 109/109/4 110/110/4
f 105/105/4 106/106/4 110/110/4
f 224/224/4 105/105/4 110/110/4
f 104/104/4 224/224/4 110/110/4
f 223/223/4 104/104/4 110/110/4
f 222/222/4 223/223/4 110/110/4
f 103/103/4 222/222/4 110/110/4
f 221/221/4 103/103/4 110/110/4
f 102/102/5 219/219/5 220/220/5
f 101/101/5 102/102/5 220/220/5
f 217/217/1 218/218/1 100/100/1
f 99/99/1 217/217/1 100/100/1
f 97/97/10 96/96/10 98/98/10
f 95/95/10 97/97/10 98/98/10
f 216/216/1 215/215/1 94/94/1
f 93/93/1 216/216/1 94/94/1
f 92/92/10 214/214/10 213/213/10
f 91/91/10 92/92/10 213/213/10
f 90/90/1 88/88/1 89/89/1
f 87/87/1 90/90/1 89/89/1
f 84/84/5 85/85/5 86/86/5
f 83/83/5 84/84/5 86/86/5
f 77/77/1 76/76/1 78/78/1
f 75/75/1 77/77/1 78/78/1
f 70/70/5 68/68/5 69/69/5
f 67/67/5 70/70/5 69/69/5
f 61/61/1 62/62/1 60/60/1
f 59/59/1 61/61/1 60/60/1
f 54/54/4 53/53/4 52/52/4
f 51/51/4 54/54/4 52/52/4
f 49/49/2 50/50/2 48/48/2
f 47/47/2 49/49/2 48/48/2
f 46/46/4 44/44/4 45/45/4
f 43/43/4 46/46/4 45/45/4
f 41/41/2 42/42/2 40/40/2
f 39/39/2 41/41/2 40/40/2
f 73/73/10 79/79/10 74/74/10
f 73/73/10 74/74/10 71/71/10
f 72/72/10 73/73/10 71/71/10
f 72/72/10 71/71/10 82/82/10
f 80/80/10 72/72/10 82/82/10
f 80/80/10 82/82/10 81/81/10
f 79/79/10 80/80/10 81/81/10
f 79/79/10 81/81/10 74/74/10
f 36/36/1 37/37/1 38/38/1
f 35/35/1 36/36/1 38/38/1
f 32/32/9 33/33/9 34/34/9
f 31/31/9 32/32/9 34/34/9
f 29/29/11 28/28/11 30/30/11
f 27/27/11 29/29/11 30/30/11
f 24/24/5 25/25/5 26/26/5
f 23/23/5 24/24/5 26/26/5
f 21/21/12 212/212/12 22/22/12
f 20/20/12 21/21/12 22/22/12
f 210/210/3 211/211/3 209/209/3
f 208/208/3 210/210/3 209/209/3
f 18/18/4 17/17/4 19/19/4
f 16/16/4 18/18/4 19/19/4
f 207/207/9 206/206/9 15/15/9
f 14/14/9 207/207/9 15/15/9
f 203/203/11 205/205/11 204/204/11
f 202/202/11 203/203/11 204/204/11
f 12/12/5 11/11/5 13/13/5
f 10/10/5 12/12/5 13/13/5
f 199/199/12 198/198/12 200/200/12
f 197/197/12 199/199/12 200/200/12
f 195/195/12 9/9/12 8/8/12
f 7/7/12 195/195/12 8/8/12
f 6/6/11 5/5/11 194/194/11
f 193/193/11 6/6/11 194/194/11
f 190/190/9 192/192/9 191/191/9
f 189/189/9 190/190/9 191/191/9
f 166/166/4 165/165/4 164/164/4
f 163/163/4 166/166/4 164/164/4
f 162/162/4 163/163/4 164/164/4
f 273/273/13 276/276/13 274/274/13
f 276/276/13 277/277/13 274/274/13
f 268/268/14 274/274/14 277/277/14
f 267/267/14 268/268/14 277/277/14
f 267/267/10 277/277/10 275/275/10
f 266/266/10 267/267/10 275/275/10
f 266/266/15 275/275/15 272/272/15
f 265/265/15 266/266/15 272/272/15
f 265/265/10 272/272/10 271/271/10
f 264/264/10 265/265/10 271/271/10
f 271/271/16 261/261/16 264/264/16
f 261/261/16 262/262/16 264/264/16
f 262/262/9 261/261/9 260/260/9
f 263/263/9 262/262/9 260/260/9
f 263/263/17 260/260/17 254/254/17
f 253/253/17 263/263/17 254/254/17
f 132/132/18 256/256/18 133/133/18
f 256/256/18 255/255/18 133/133/18
f 256/256/3 261/261/3 255/255/3
f 261/261/3 137/137/3 255/255/3
f 137/137/19 261/261/19 271/271/19
f 270/270/19 137/137/19 271/271/19
f 270/270/10 271/271/10 272/272/10
f 269/269/10 270/270/10 272/272/10
f 269/269/20 272/272/20 275/275/20
f 278/278/20 269/269/20 275/275/20
f 278/278/10 275/275/10 277/277/10
f 276/276/10 278/278/10 277/277/10
f 134/134/21 257/257/21 135/135/21
f 257/257/21 258/258/21 135/135/21
f 257/257/12 136/136/12 258/258/12
f 136/136/12 262/262/12 258/258/12
f 262/262/22 136/136/22 259/259/22
f 264/264/22 262/262/22 259/259/22
f 259/259/10 250/250/10 264/264/10
f 250/250/10 265/265/10 264/264/10
f 250/250/13 252/252/13 265/265/13
f 252/252/13 266/266/13 265/265/13
f 252/252/10 251/251/10 266/266/10
f 251/251/10 267/267/10 266/266/10
f 251/251/20 249/249/20 267/267/20
f 249/249/20 268/268/20 267/267/20
f 249/249/10 127/127/10 268/268/10
f 127/127/10 150/150/10 268/268/10
f 268/268/10 150/150/10 274/274/10
f 150/150/10 157/157/10 274/274/10
f 273/273/10 274/274/10 157/157/10
f 156/156/10 273/273/10 157/157/10
f 280/280/10 279/279/10 172/172/10
f 201/201/10 280/280/10 172/172/10
f 280/280/10 201/201/10 283/283/10
f 284/284/10 280/280/10 283/283/10
f 188/188/10 284/284/10 283/283/10
f 284/284/10 188/188/10 187/187/10
f 188/188/10 172/172/10 187/187/10
f 171/171/10 187/187/10 172/172/10
f 279/279/10 171/171/10 172/172/10
f 171/171/10 279/279/10 196/196/10
f 279/279/10 285/285/10 196/196/10
f 285/285/10 286/286/10 196/196/10
f 286/286/10 285/285/10 187/187/10
f 285/285/10 284/284/10 187/187/10
f 55/55/10 58/58/10 66/66/10
f 55/55/10 56/56/10 58/58/10
f 56/56/10 57/57/10 58/58/10
f 56/56/10 64/64/10 57/57/10
f 64/64/10 63/63/10 57/57/10
f 64/64/10 65/65/10 63/63/10
f 65/65/10 66/66/10 63/63/10
f 65/65/10 55/55/10 66/66/10
f 117/117/2 116/116/2 118/118/2
f 232/232/2 117/117/2 118/118/2
f 115/115/2 232/232/2 118/118/2
f 231/231/2 115/115/2 118/118/2
f 114/114/2 231/231/2 118/118/2
f 113/113/2 114/114/2 118/118/2
f 230/230/2 113/113/2 118/118/2
f 112/112/2 230/230/2 118/118/2
f 229/229/2 112/112/2 118/118/2
f 228/228/2 229/229/2 118/118/2
f 111/111/2 228/228/2 118/118/2
f 227/227/2 111/111/2 118/118/2
f 124/124/23 123/123/23 238/238/23
f 237/237/23 124/124/23 238/238/23
f 248/248/10 237/237/10 238/238/10
f 247/247/10 248/248/10 238/238/10
f 247/247/24 126/126/24 248/248/24
f 126/126/24 125/125/24 248/248/24
